<svg id="visual" viewBox="0 0 675 900" width="675" height="900" xmlns="http://www.w3.org/2000/svg" xmlns:xlink="http://www.w3.org/1999/xlink" version="1.1"><rect x="0" y="0" width="675" height="900" fill="#140021"></rect><path d="M0 575L96 575L96 421L193 421L193 548L289 548L289 480L386 480L386 572L482 572L482 386L579 386L579 568L675 568L675 573L675 901L675 901L579 901L579 901L482 901L482 901L386 901L386 901L289 901L289 901L193 901L193 901L96 901L96 901L0 901Z" fill="#560090"></path><path d="M0 635L96 635L96 680L193 680L193 654L289 654L289 598L386 598L386 554L482 554L482 636L579 636L579 633L675 633L675 664L675 901L675 901L579 901L579 901L482 901L482 901L386 901L386 901L289 901L289 901L193 901L193 901L96 901L96 901L0 901Z" fill="#7700c6"></path><path d="M0 765L96 765L96 687L193 687L193 773L289 773L289 798L386 798L386 706L482 706L482 764L579 764L579 774L675 774L675 745L675 901L675 901L579 901L579 901L482 901L482 901L386 901L386 901L289 901L289 901L193 901L193 901L96 901L96 901L0 901Z" fill="#9900ff"></path></svg>